<svg id="svg" version="1.1" xmlns="http://www.w3.org/2000/svg" xmlns:xlink="http://www.w3.org/1999/xlink" width="400" height="400" viewBox="0, 0, 400,400"><g id="svgg"><path id="path0" d="M127.088 93.388 C 111.629 146.485,121.235 204.030,147.649 216.564 C 155.801 220.433,158.678 223.947,158.678 230.039 C 158.678 263.088,198.420 286.623,222.390 267.769 C 232.779 259.596,234.711 259.516,234.711 267.256 C 234.711 290.728,269.889 289.793,283.959 265.947 C 293.599 249.609,289.114 244.770,278.668 260.240 C 254.946 295.370,228.301 274.553,249.598 237.528 C 263.934 212.604,268.445 178.512,257.406 178.512 C 252.108 178.512,237.915 213.102,235.765 231.254 C 230.196 278.277,174.181 279.070,166.691 232.232 C 164.893 220.989,165.676 218.689,172.914 213.946 C 185.816 205.493,202.943 144.334,195.597 132.946 C 187.684 120.677,178.268 135.250,167.171 176.943 C 157.369 213.772,157.096 214.277,149.594 209.545 C 126.588 195.033,121.462 152.309,135.453 91.679 C 141.916 63.668,135.349 65.010,127.088 93.388 M183.404 177.581 C 177.196 198.935,168.595 214.121,168.595 203.728 C 168.595 198.158,179.815 156.726,184.376 145.455 C 189.249 133.411,188.436 160.269,183.404 177.581 M251.158 216.777 C 245.549 233.773,243.593 228.460,248.477 209.493 C 250.758 200.635,253.167 196.004,253.832 199.200 C 254.497 202.397,253.293 210.306,251.158 216.777 " stroke="none" fill="#000000" fill-rule="evenodd"></path></g></svg>