<svg id="svg" version="1.1" xmlns="http://www.w3.org/2000/svg" xmlns:xlink="http://www.w3.org/1999/xlink" width="400" height="410.8108108108108" viewBox="0, 0, 400,410.8108108108108"><g id="svgg"><path id="path0" d="M177.574 51.695 C 42.619 69.051,9.492 266.740,131.218 328.328 C 145.645 335.627,157.564 336.025,152.008 329.022 C 150.548 327.182,147.915 321.209,146.158 315.751 C 144.271 309.889,135.977 298.824,125.899 288.724 C 101.573 264.342,92.279 247.929,87.533 220.975 C 83.654 198.939,83.976 190.024,89.608 163.514 C 93.338 145.958,118.060 108.108,125.797 108.108 C 127.596 108.108,130.630 106.226,132.539 103.926 C 139.306 95.772,140.458 106.571,140.499 178.537 C 140.545 257.677,140.790 258.901,156.757 259.861 C 182.573 261.412,183.784 257.181,183.784 165.373 C 183.784 77.058,183.043 80.091,204.538 80.416 C 221.835 80.678,221.534 79.231,221.580 162.321 C 221.624 241.859,221.432 240.674,235.716 249.513 C 260.518 264.862,263.293 257.866,264.865 176.028 C 266.435 94.247,266.438 94.238,285.658 113.457 C 334.928 162.727,332.931 233.576,280.767 286.997 C 270.664 297.343,261.655 308.149,260.747 311.012 C 259.839 313.874,258.093 316.216,256.868 316.216 C 253.060 316.216,250.942 330.034,254.156 333.907 C 260.733 341.832,304.796 310.920,323.497 285.262 C 378.868 209.287,349.290 102.384,261.501 61.194 C 238.480 50.393,211.471 47.336,177.574 51.695 M182.794 269.136 C 171.571 275.706,161.617 281.081,160.674 281.081 C 159.732 281.081,155.868 283.514,152.089 286.486 C 148.309 289.459,146.465 291.892,147.991 291.892 C 149.516 291.892,152.830 296.453,155.354 302.027 C 182.951 362.973,223.033 372.526,239.076 321.979 C 240.179 318.503,244.053 311.281,247.684 305.930 C 256.487 292.957,255.060 286.439,241.892 279.479 C 235.946 276.337,224.808 270.036,217.141 265.478 L 203.200 257.190 182.794 269.136 M196.120 365.392 C 191.977 371.264,192.062 371.897,197.600 376.421 C 205.408 382.801,214.513 376.153,211.000 366.637 C 208.012 358.542,201.346 357.984,196.120 365.392 " stroke="none" fill="#000000" fill-rule="evenodd"></path></g></svg>