<svg id="svg" version="1.1" xmlns="http://www.w3.org/2000/svg" xmlns:xlink="http://www.w3.org/1999/xlink" width="400" height="459.0361445783132" viewBox="0, 0, 400,459.0361445783132"><g id="svgg"><path id="path1" d="M218.200 20.392 C 216.220 20.772,213.610 21.367,212.400 21.714 C 211.190 22.062,209.390 22.459,208.400 22.597 C 206.398 22.876,200.975 24.266,195.200 25.979 C 193.110 26.599,189.780 27.414,187.800 27.791 C 183.824 28.546,176.372 30.339,167.800 32.602 C 164.720 33.415,161.120 34.340,159.800 34.657 C 158.480 34.974,156.045 35.660,154.388 36.182 C 151.609 37.058,149.350 37.594,142.400 39.025 C 140.004 39.519,135.966 40.605,128.459 42.775 C 124.075 44.043,120.000 46.401,120.000 47.671 C 120.000 47.942,117.911 51.240,115.864 54.200 C 114.313 56.442,108.189 65.963,106.546 68.687 C 105.513 70.399,104.329 72.250,103.916 72.800 C 102.573 74.588,100.400 77.973,100.391 78.290 C 100.386 78.461,100.021 79.050,99.581 79.600 C 99.140 80.150,97.783 82.075,96.567 83.879 C 95.350 85.682,91.800 89.920,88.677 93.296 C 85.555 96.672,82.192 100.462,81.204 101.717 C 80.217 102.973,79.278 104.000,79.119 104.000 C 78.960 104.000,77.907 105.125,76.779 106.500 C 75.652 107.875,73.497 110.440,71.991 112.200 C 66.002 119.198,61.732 124.353,60.400 126.193 C 59.630 127.256,58.010 129.517,56.800 131.216 C 53.259 136.188,51.179 138.904,49.767 140.400 C 48.400 141.848,48.033 142.339,44.127 147.933 C 42.847 149.766,41.260 152.034,40.600 152.973 C 39.940 153.912,39.048 155.202,38.618 155.840 C 38.188 156.478,37.288 157.657,36.618 158.460 C 32.870 162.950,32.930 162.621,34.007 172.767 C 35.720 188.893,36.490 215.990,36.185 249.400 L 35.916 279.000 36.758 280.063 C 37.221 280.648,37.600 281.309,37.600 281.532 C 37.600 281.755,38.389 283.113,39.352 284.551 C 40.316 285.988,41.782 288.477,42.609 290.082 C 43.437 291.687,44.448 293.429,44.857 293.954 C 45.266 294.479,45.600 295.107,45.600 295.350 C 45.600 295.594,46.202 296.695,46.937 297.797 C 49.441 301.550,51.200 304.335,51.200 304.548 C 51.200 304.664,51.716 305.534,52.346 306.480 C 53.490 308.197,54.005 309.061,56.978 314.247 C 57.845 315.761,59.220 317.900,60.033 319.000 C 60.846 320.100,62.476 322.651,63.655 324.668 C 67.926 331.973,70.548 336.239,71.975 338.200 C 72.775 339.300,74.233 341.538,75.215 343.174 C 76.197 344.809,77.580 347.059,78.288 348.174 C 78.997 349.288,80.108 351.190,80.757 352.400 C 81.406 353.610,82.759 355.680,83.763 357.000 C 84.767 358.320,86.300 360.390,87.170 361.600 C 88.040 362.810,89.671 364.970,90.795 366.400 C 91.919 367.830,94.078 370.620,95.594 372.600 C 100.469 378.967,103.914 383.086,108.937 388.550 C 110.732 390.502,112.360 392.392,112.555 392.750 C 114.194 395.755,119.409 398.071,133.400 402.005 C 147.368 405.934,150.581 406.868,151.159 407.166 C 151.902 407.550,161.998 410.086,166.400 410.994 C 169.213 411.574,181.695 414.670,188.400 416.450 C 193.252 417.738,196.311 418.342,201.265 418.991 C 204.485 419.412,206.528 419.905,207.865 420.584 C 209.649 421.489,212.701 422.278,222.800 424.446 C 230.736 426.150,243.303 424.959,255.000 421.397 C 256.760 420.860,259.280 420.135,260.600 419.783 C 266.674 418.168,268.937 417.481,273.600 415.841 C 286.424 411.328,292.450 409.216,295.400 408.202 C 297.160 407.596,298.960 406.910,299.400 406.678 C 300.230 406.239,306.127 404.155,318.800 399.821 C 331.867 395.352,331.408 395.558,331.347 394.191 C 331.285 392.775,330.597 381.706,329.981 372.200 C 329.578 365.988,329.093 362.075,327.378 351.200 C 327.049 349.110,326.609 346.230,326.401 344.800 C 326.193 343.370,325.748 340.670,325.412 338.800 C 325.076 336.930,324.801 334.611,324.801 333.648 C 324.800 332.021,324.461 329.473,323.013 320.200 C 321.532 310.722,321.426 309.197,321.496 298.400 C 321.625 278.369,322.642 260.991,324.001 255.600 C 324.196 254.830,324.549 252.310,324.787 250.000 C 325.512 242.957,326.346 238.336,327.420 235.400 C 327.984 233.860,328.863 231.340,329.374 229.800 C 329.885 228.260,330.574 226.370,330.905 225.600 C 331.687 223.783,332.055 195.727,332.193 127.400 C 332.259 94.872,332.434 77.590,332.711 76.400 C 333.571 72.710,334.066 56.764,333.460 52.325 L 333.149 50.051 330.220 48.225 C 328.609 47.221,327.136 46.395,326.946 46.389 C 326.756 46.383,325.970 45.836,325.200 45.173 C 318.009 38.984,316.252 38.079,307.400 36.012 C 305.420 35.550,301.550 34.570,298.800 33.835 C 294.045 32.564,288.204 31.183,281.600 29.767 C 279.950 29.414,278.150 28.966,277.600 28.772 C 277.050 28.578,274.710 28.135,272.400 27.788 C 270.090 27.442,266.940 26.822,265.400 26.411 C 263.860 26.000,261.790 25.484,260.800 25.265 C 259.810 25.046,257.830 24.572,256.400 24.212 C 254.970 23.852,252.360 23.377,250.600 23.157 C 248.840 22.937,245.240 22.325,242.600 21.797 C 230.700 19.417,224.990 19.089,218.200 20.392 M241.000 107.219 C 246.630 107.600,252.508 108.806,256.909 110.482 C 260.129 111.709,256.532 111.817,253.000 110.600 C 252.120 110.297,249.510 109.763,247.200 109.413 C 244.890 109.064,242.460 108.613,241.800 108.411 C 230.739 105.023,204.807 109.993,187.253 118.865 C 182.536 121.249,178.320 123.200,177.885 123.200 C 176.434 123.200,173.958 124.132,173.592 124.815 C 173.015 125.893,174.843 127.419,175.982 126.810 C 178.098 125.677,180.800 127.737,180.800 130.482 C 180.800 131.759,179.086 133.619,177.183 134.407 C 176.586 134.654,175.500 135.780,174.768 136.909 C 172.666 140.154,171.013 141.442,165.110 144.439 C 159.943 147.062,151.229 147.645,152.206 145.302 C 152.367 144.916,152.650 143.840,152.835 142.912 C 153.561 139.267,155.762 136.450,159.450 134.441 C 160.522 133.858,162.134 132.433,163.117 131.200 C 166.073 127.490,166.772 126.853,169.533 125.356 C 171.000 124.560,174.227 122.759,176.704 121.354 C 179.182 119.949,181.325 118.800,181.467 118.800 C 181.608 118.800,182.281 118.385,182.962 117.877 C 185.096 116.286,188.480 114.712,191.800 113.766 C 193.560 113.264,197.700 111.874,201.000 110.677 C 204.412 109.439,208.380 108.296,210.200 108.028 C 211.960 107.768,214.390 107.407,215.600 107.224 C 218.773 106.747,233.985 106.744,241.000 107.219 M266.958 113.783 C 268.475 114.113,269.810 114.477,269.925 114.592 C 270.452 115.119,264.824 114.218,263.400 113.548 C 261.556 112.679,262.018 112.710,266.958 113.783 M282.956 116.800 C 283.446 116.800,284.196 117.079,284.624 117.421 C 285.369 118.017,285.360 118.030,284.400 117.762 C 283.850 117.608,282.770 117.443,282.000 117.397 C 280.282 117.293,280.293 117.297,280.617 116.773 C 280.762 116.538,281.147 116.448,281.473 116.573 C 281.799 116.698,282.466 116.800,282.956 116.800 M197.685 166.797 C 206.514 170.122,203.116 181.744,193.049 182.653 C 188.909 183.027,184.274 178.072,185.577 174.666 C 186.396 172.526,193.636 166.200,195.485 166.009 C 195.532 166.004,196.522 166.358,197.685 166.797 M258.911 187.676 C 268.355 193.350,271.787 206.886,265.469 213.535 C 254.276 225.313,234.678 201.297,245.075 188.543 C 248.028 184.920,253.730 184.563,258.911 187.676 M210.943 230.600 C 210.454 237.415,208.597 241.067,206.307 239.717 C 205.588 239.293,204.145 238.694,203.100 238.386 C 200.541 237.631,200.697 237.059,203.400 237.283 C 205.733 237.477,206.407 236.768,205.000 235.600 C 203.605 234.442,204.259 232.700,206.697 231.082 C 209.233 229.399,211.043 229.194,210.943 230.600 M204.202 242.800 C 204.260 242.800,204.401 243.160,204.516 243.600 C 204.682 244.236,204.528 244.400,203.763 244.400 C 202.685 244.400,201.200 243.122,201.200 242.195 C 201.200 241.654,201.355 241.654,202.649 242.195 C 203.446 242.528,204.145 242.800,204.202 242.800 M111.602 244.700 C 111.605 248.835,114.563 263.470,116.037 266.644 C 116.457 267.548,116.800 268.459,116.800 268.668 C 116.800 271.644,122.786 285.286,126.895 291.676 C 127.700 292.927,128.731 294.681,129.186 295.573 C 137.957 312.766,165.152 333.409,185.800 338.547 C 187.120 338.876,189.100 339.382,190.200 339.672 C 192.688 340.329,207.967 340.318,211.200 339.657 C 212.410 339.410,216.370 338.938,220.000 338.608 C 244.447 336.389,250.539 335.201,260.307 330.751 C 263.267 329.403,262.588 330.144,259.068 332.105 C 254.862 334.447,253.150 335.133,241.800 339.025 C 231.376 342.601,221.073 343.683,207.000 342.683 C 197.336 341.996,182.462 339.240,178.904 337.478 C 178.297 337.177,176.720 336.604,175.400 336.204 C 172.311 335.268,163.408 330.934,159.800 328.609 C 158.260 327.617,156.489 326.489,155.865 326.103 C 142.841 318.036,126.687 300.125,119.807 286.123 C 118.813 284.100,118.000 282.278,118.000 282.073 C 118.000 281.867,117.528 280.642,116.952 279.350 C 114.051 272.843,112.889 268.412,111.982 260.400 C 111.746 258.310,111.383 256.047,111.176 255.372 C 110.663 253.695,110.683 242.800,111.200 242.800 C 111.420 242.800,111.601 243.655,111.602 244.700 M259.227 295.445 C 267.806 297.992,272.664 304.748,269.875 310.252 C 266.968 315.988,261.726 318.213,255.600 316.310 C 252.509 315.350,246.268 310.332,245.298 308.028 C 241.926 300.013,250.011 292.709,259.227 295.445 " stroke="none" fill="#000000" fill-rule="evenodd"></path></g></svg>